<?xml version="1.0" encoding="utf-8"?>
<!-- Generator: Adobe Illustrator 26.3.1, SVG Export Plug-In . SVG Version: 6.00 Build 0)  -->
<svg version="1.1" id="Capa_1" xmlns="http://www.w3.org/2000/svg" xmlns:xlink="http://www.w3.org/1999/xlink" x="0px" y="0px"
	 viewBox="0 0 452 123" style="enable-background:new 0 0 452 123;" xml:space="preserve">
<style type="text/css">
	.st0{fill:url(#SVGID_1_);}
	.st1{fill:#FFFFFF;}
</style>
<linearGradient id="SVGID_1_" gradientUnits="userSpaceOnUse" x1="89.2041" y1="198.2959" x2="362.7959" y2="-75.2959">
	<stop  offset="0" style="stop-color:#F62C84"/>
	<stop  offset="0.2327" style="stop-color:#E1309C"/>
	<stop  offset="0.7214" style="stop-color:#AB38D9"/>
	<stop  offset="1" style="stop-color:#8A3EFF"/>
</linearGradient>
<path class="st0" d="M427.3,123.5H24.7c-13.8,0-25-11.2-25-25v-74c0-13.8,11.2-25,25-25l402.6,0c13.8,0,25,11.2,25,25v74
	C452.3,112.2,441,123.5,427.3,123.5z"/>
<g>
	<path class="st1" d="M155.2,22.3h54.3v19.1h-30.2v10.6H201v18.1h-21.7v29h-24.1V22.3z"/>
	<path class="st1" d="M241.7,22.3V81H265v18.2h-47.3V22.3H241.7z"/>
	<path class="st1" d="M272.1,22.3h24v43.3c0,6.6,2.6,11.5,9.9,11.5c7.3,0,10.2-4.9,10.2-11.5V22.3h24v43.3
		c0,22.7-15.5,34.3-34.7,34.3s-33.3-11.6-33.3-34.3V22.3z"/>
	<path class="st1" d="M385.5,79.2l-11.7,20h-27.5l25.3-39.6l-26.4-37.2h28.6l13.6,19.2l11.3-19.2h27.5l-24.9,38.9l26.9,38h-28.6
		L385.5,79.2z"/>
</g>
<g>
	<path class="st1" d="M53,80.3c0,3.2,0,6.4,0,9.6c0.2,0,0.4,0,0.6,0c5.9,0,11.9,0,17.8,0c0.7,0,0.7,0,0.7,0.7c0,2.8,0,5.5,0,8.3
		c0,0.4-0.1,0.6-0.6,0.6c-6,0-12.1,0-18.1,0c-0.5,0-0.6-0.2-0.6-0.6c0-2.8,0-5.6,0-8.4c0-0.2,0-0.4,0-0.6c-0.3,0-0.4,0-0.6,0
		c-2.8,0-5.5,0-8.3,0c-0.6,0-0.6,0-0.6-0.7c0-5.9,0-11.8,0-17.8c0-0.2,0-0.4,0-0.7c-3.2,0-6.3,0-9.6,0c0,0.2,0,0.4,0,0.6
		c0,5.9,0,11.9,0,17.8c0,0.7,0,0.7-0.7,0.7c-2.8,0-5.6,0-8.4,0c-0.5,0-0.6-0.1-0.6-0.6c0-9.2,0-18.4,0-27.6c0-0.5,0.2-0.6,0.6-0.6
		c2.8,0,5.6,0,8.4,0c0.2,0,0.4,0,0.7,0c0-0.2,0-0.4,0-0.6c0-2.7,0-5.5,0-8.2c0-0.5,0.1-0.6,0.6-0.6c2.8,0,5.5,0,8.3,0
		c0.2,0,0.4,0,0.6,0c0-0.2,0-0.4,0-0.6c0-2.9,0-5.8,0-8.6c0-0.5,0.1-0.6,0.6-0.6c2.8,0,5.5,0,8.3,0c0.2,0,0.4,0,0.6,0
		c0-3.1,0-6.2,0-9.4c-0.2,0-0.4,0-0.6,0c-2.8,0-5.6,0-8.3,0c-0.5,0-0.6-0.2-0.6-0.6c0-2.8,0-5.6,0-8.4c0-0.5,0.1-0.6,0.6-0.6
		c2.8,0,5.7,0,8.5,0c0.4,0,0.6,0.1,0.6,0.6c0,2.8,0,5.6,0,8.3c0,0.2,0,0.4,0,0.7c0.2,0,0.4,0,0.6,0c2.8,0,5.6,0,8.4,0
		c0.4,0,0.6,0.1,0.6,0.6c0,2.8,0,5.6,0,8.4c0,0.2,0,0.4,0,0.6c9.5,0,19,0,28.6,0c0-0.2,0-0.4,0-0.6c0-2.8,0-5.6,0-8.4
		c0-0.5,0.1-0.6,0.6-0.6c2.8,0,5.5,0,8.3,0c0.2,0,0.4,0,0.6,0c0-0.2,0-0.4,0-0.6c0-2.8,0-5.6,0-8.3c0-0.5,0.1-0.6,0.6-0.6
		c2.8,0,5.6,0,8.4,0c0.4,0,0.6,0.1,0.6,0.6c0,2.8,0,5.6,0,8.3c0,0.7,0,0.7-0.6,0.7c-2.8,0-5.5,0-8.3,0c-0.2,0-0.4,0-0.6,0
		c0,3.1,0,6.2,0,9.4c0.2,0,0.4,0,0.6,0c2.8,0,5.6,0,8.3,0c0.5,0,0.6,0.1,0.6,0.6c0,2.9,0,5.7,0,8.6c0,0.2,0,0.4,0,0.7
		c0.2,0,0.4,0,0.6,0c2.8,0,5.7,0,8.5,0c0.4,0,0.6,0.1,0.6,0.6c0,2.7,0,5.5,0,8.2c0,0.2,0,0.4,0,0.7c0.2,0,0.4,0,0.6,0
		c2.8,0,5.5,0,8.3,0c0.7,0,0.7,0,0.7,0.6c0,9.2,0,18.3,0,27.5c0,0.6,0,0.6-0.7,0.6c-2.8,0-5.5,0-8.3,0c-0.5,0-0.6-0.2-0.6-0.6
		c0-5.9,0-11.9,0-17.8c0-0.2,0-0.4,0-0.7c-3.2,0-6.4,0-9.7,0c0,0.2,0,0.4,0,0.6c0,5.9,0,11.9,0,17.8c0,0.7,0,0.7-0.6,0.7
		c-2.8,0-5.5,0-8.3,0c-0.2,0-0.4,0-0.6,0c0,0.3,0,0.4,0,0.6c0,2.8,0,5.6,0,8.4c0,0.5-0.2,0.6-0.6,0.6c-6,0-11.9,0-17.9,0
		c-0.5,0-0.6-0.1-0.6-0.6c0-2.8,0-5.6,0-8.3c0-0.5,0.1-0.6,0.6-0.6c5.9,0,11.8,0,17.8,0c0.2,0,0.5,0,0.7,0c0-3.2,0-6.4,0-9.6
		C84.8,80.3,68.9,80.3,53,80.3z M62.5,61c0-3.2,0-6.3,0-9.4c-3.2,0-6.3,0-9.5,0c0,3.2,0,6.3,0,9.4C56.2,61,59.3,61,62.5,61z
		 M91.2,61c3.2,0,6.3,0,9.5,0c0-3.2,0-6.3,0-9.4c-3.2,0-6.3,0-9.5,0C91.2,54.8,91.2,57.9,91.2,61z"/>
</g>
</svg>
